<svg id="visual" viewBox="0 0 900 600" width="900" height="600" xmlns="http://www.w3.org/2000/svg" xmlns:xlink="http://www.w3.org/1999/xlink" version="1.1"><rect x="0" y="0" width="900" height="600" fill="#001220"></rect><path d="M239 0L246.7 14.3C254.3 28.7 269.7 57.3 275.2 85.8C280.7 114.3 276.3 142.7 278.5 171.2C280.7 199.7 289.3 228.3 278 257C266.7 285.7 235.3 314.3 217.8 343C200.3 371.7 196.7 400.3 210 428.8C223.3 457.3 253.7 485.7 269.3 514.2C285 542.7 286 571.3 286.5 585.7L287 600L0 600L0 585.7C0 571.3 0 542.7 0 514.2C0 485.7 0 457.3 0 428.8C0 400.3 0 371.7 0 343C0 314.3 0 285.7 0 257C0 228.3 0 199.7 0 171.2C0 142.7 0 114.3 0 85.8C0 57.3 0 28.7 0 14.3L0 0Z" fill="#fa7268"></path><path d="M167 0L165.7 14.3C164.3 28.7 161.7 57.3 167 85.8C172.3 114.3 185.7 142.7 199.7 171.2C213.7 199.7 228.3 228.3 219.2 257C210 285.7 177 314.3 173 343C169 371.7 194 400.3 205.8 428.8C217.7 457.3 216.3 485.7 205 514.2C193.7 542.7 172.3 571.3 161.7 585.7L151 600L0 600L0 585.7C0 571.3 0 542.7 0 514.2C0 485.7 0 457.3 0 428.8C0 400.3 0 371.7 0 343C0 314.3 0 285.7 0 257C0 228.3 0 199.7 0 171.2C0 142.7 0 114.3 0 85.8C0 57.3 0 28.7 0 14.3L0 0Z" fill="#ef5f67"></path><path d="M106 0L107.3 14.3C108.7 28.7 111.3 57.3 117 85.8C122.7 114.3 131.3 142.7 139.5 171.2C147.7 199.7 155.3 228.3 164.3 257C173.3 285.7 183.7 314.3 184.2 343C184.7 371.7 175.3 400.3 168.8 428.8C162.3 457.3 158.7 485.7 151 514.2C143.3 542.7 131.7 571.3 125.8 585.7L120 600L0 600L0 585.7C0 571.3 0 542.7 0 514.2C0 485.7 0 457.3 0 428.8C0 400.3 0 371.7 0 343C0 314.3 0 285.7 0 257C0 228.3 0 199.7 0 171.2C0 142.7 0 114.3 0 85.8C0 57.3 0 28.7 0 14.3L0 0Z" fill="#e34c67"></path><path d="M104 0L100.7 14.3C97.3 28.7 90.7 57.3 91.8 85.8C93 114.3 102 142.7 111.3 171.2C120.7 199.7 130.3 228.3 134.2 257C138 285.7 136 314.3 128 343C120 371.7 106 400.3 96.8 428.8C87.7 457.3 83.3 485.7 81.2 514.2C79 542.7 79 571.3 79 585.7L79 600L0 600L0 585.7C0 571.3 0 542.7 0 514.2C0 485.7 0 457.3 0 428.8C0 400.3 0 371.7 0 343C0 314.3 0 285.7 0 257C0 228.3 0 199.7 0 171.2C0 142.7 0 114.3 0 85.8C0 57.3 0 28.7 0 14.3L0 0Z" fill="#d53867"></path><path d="M86 0L81.3 14.3C76.7 28.7 67.3 57.3 59 85.8C50.7 114.3 43.3 142.7 40.3 171.2C37.3 199.7 38.7 228.3 40.5 257C42.3 285.7 44.7 314.3 43.5 343C42.3 371.7 37.7 400.3 42.2 428.8C46.7 457.3 60.3 485.7 65.7 514.2C71 542.7 68 571.3 66.5 585.7L65 600L0 600L0 585.7C0 571.3 0 542.7 0 514.2C0 485.7 0 457.3 0 428.8C0 400.3 0 371.7 0 343C0 314.3 0 285.7 0 257C0 228.3 0 199.7 0 171.2C0 142.7 0 114.3 0 85.8C0 57.3 0 28.7 0 14.3L0 0Z" fill="#c62368"></path></svg>